# xmcd CD database file
#
# Track frame offsets:
#	150
#	17673
#	38237
#	54117
#	76313
#	90490
#	106684
#	124666
#	149840
#	166450
#	185149
#
# Disc length: 2711 seconds
#
# Revision: 0
# Processed by: cddbd v1.5.2PL0 Copyright (c) Steve Scherf et al.
# Submitted via: CDex 1.51
#
DISCID=8a0a950b
DTITLE=Raising The Bar - Magic Slim and The Teardrops
DYEAR=2010
DGENRE=Blues
TTITLE0=Part Time Love
TTITLE1=Breaking Up Somebody's Home
TTITLE2=Do You Mean It
TTITLE3=Cummins Prison Farm
TTITLE4=Mama Talk To Your Daughter
TTITLE5=I Can't Hold Out
TTITLE6=Shame
TTITLE7=Sunny Road Blues
TTITLE8=Gonna Move To Kansas City
TTITLE9=4'59 A.M.
TTITLE10=Treat Me The Way You Do
EXTD=YEAR: 2010
EXTT0=
EXTT1=
EXTT2=
EXTT3=
EXTT4=
EXTT5=
EXTT6=
EXTT7=
EXTT8=
EXTT9=
EXTT10=
PLAYORDER=
